<mxfile host="app.diagrams.net" modified="2021-07-07T14:54:11.771Z" agent="5.0 (Windows NT 10.0; Win64; x64) AppleWebKit/537.36 (KHTML, like Gecko) Chrome/91.0.4472.124 Safari/537.36" etag="K6EaGJpnOtwsOSPgf3W_" version="14.8.4" type="github" pages="2">
  <diagram id="K2p1Gg03RsohRuli_Zxr" name="Page-1">
    <mxGraphModel dx="782" dy="468" grid="1" gridSize="10" guides="1" tooltips="1" connect="1" arrows="1" fold="1" page="1" pageScale="1" pageWidth="850" pageHeight="1100" math="0" shadow="0">
      <root>
        <mxCell id="0" />
        <mxCell id="1" parent="0" />
        <mxCell id="-2xxfe4GZpgjKEHO3-6V-1" value="Component : unit amount of UI.&amp;nbsp;&lt;br&gt;2 types of components :&amp;nbsp;&lt;br&gt;1. smart component :&amp;nbsp;&lt;br&gt;2. dumb component. to do the reusability.&amp;nbsp;" style="rounded=1;whiteSpace=wrap;html=1;" vertex="1" parent="1">
          <mxGeometry x="62" y="100" width="460" height="70" as="geometry" />
        </mxCell>
      </root>
    </mxGraphModel>
  </diagram>
  <diagram id="fvP7hQdrlGyUCUqU5F9Y" name="HomePage">
    <mxGraphModel dx="1038" dy="613" grid="1" gridSize="10" guides="1" tooltips="1" connect="1" arrows="1" fold="1" page="1" pageScale="1" pageWidth="850" pageHeight="1100" math="0" shadow="0">
      <root>
        <mxCell id="bSQ3q1H7U0tl5dDUjRKu-0" />
        <mxCell id="bSQ3q1H7U0tl5dDUjRKu-1" parent="bSQ3q1H7U0tl5dDUjRKu-0" />
        <mxCell id="bSQ3q1H7U0tl5dDUjRKu-2" value="" style="rounded=1;whiteSpace=wrap;html=1;" vertex="1" parent="bSQ3q1H7U0tl5dDUjRKu-1">
          <mxGeometry x="160" y="90" width="400" height="390" as="geometry" />
        </mxCell>
        <mxCell id="bSQ3q1H7U0tl5dDUjRKu-3" value="Header" style="rounded=1;whiteSpace=wrap;html=1;" vertex="1" parent="bSQ3q1H7U0tl5dDUjRKu-1">
          <mxGeometry x="190" y="110" width="330" height="90" as="geometry" />
        </mxCell>
        <mxCell id="bSQ3q1H7U0tl5dDUjRKu-4" value="Landing" style="rounded=1;whiteSpace=wrap;html=1;" vertex="1" parent="bSQ3q1H7U0tl5dDUjRKu-1">
          <mxGeometry x="190" y="210" width="330" height="90" as="geometry" />
        </mxCell>
        <mxCell id="bSQ3q1H7U0tl5dDUjRKu-5" value="Footer" style="rounded=1;whiteSpace=wrap;html=1;" vertex="1" parent="bSQ3q1H7U0tl5dDUjRKu-1">
          <mxGeometry x="195" y="330" width="330" height="90" as="geometry" />
        </mxCell>
        <mxCell id="bSQ3q1H7U0tl5dDUjRKu-6" value="Layouting of ur application." style="rounded=1;whiteSpace=wrap;html=1;" vertex="1" parent="bSQ3q1H7U0tl5dDUjRKu-1">
          <mxGeometry x="30" y="40" width="120" height="60" as="geometry" />
        </mxCell>
        <mxCell id="bSQ3q1H7U0tl5dDUjRKu-9" value="" style="edgeStyle=orthogonalEdgeStyle;rounded=0;orthogonalLoop=1;jettySize=auto;html=1;" edge="1" parent="bSQ3q1H7U0tl5dDUjRKu-1" source="bSQ3q1H7U0tl5dDUjRKu-7" target="bSQ3q1H7U0tl5dDUjRKu-8">
          <mxGeometry relative="1" as="geometry" />
        </mxCell>
        <mxCell id="bSQ3q1H7U0tl5dDUjRKu-11" value="" style="edgeStyle=orthogonalEdgeStyle;rounded=0;orthogonalLoop=1;jettySize=auto;html=1;" edge="1" parent="bSQ3q1H7U0tl5dDUjRKu-1" source="bSQ3q1H7U0tl5dDUjRKu-7" target="bSQ3q1H7U0tl5dDUjRKu-10">
          <mxGeometry relative="1" as="geometry" />
        </mxCell>
        <mxCell id="bSQ3q1H7U0tl5dDUjRKu-7" value="To create a component" style="rounded=1;whiteSpace=wrap;html=1;" vertex="1" parent="bSQ3q1H7U0tl5dDUjRKu-1">
          <mxGeometry x="680" y="80" width="120" height="60" as="geometry" />
        </mxCell>
        <mxCell id="bSQ3q1H7U0tl5dDUjRKu-8" value="class based component" style="whiteSpace=wrap;html=1;rounded=1;" vertex="1" parent="bSQ3q1H7U0tl5dDUjRKu-1">
          <mxGeometry x="610" y="225" width="120" height="60" as="geometry" />
        </mxCell>
        <mxCell id="bSQ3q1H7U0tl5dDUjRKu-10" value="functional based component." style="whiteSpace=wrap;html=1;rounded=1;fillColor=#f8cecc;strokeColor=#b85450;" vertex="1" parent="bSQ3q1H7U0tl5dDUjRKu-1">
          <mxGeometry x="790" y="225" width="120" height="60" as="geometry" />
        </mxCell>
        <mxCell id="bSQ3q1H7U0tl5dDUjRKu-12" value="index.html" style="text;html=1;strokeColor=none;fillColor=none;align=center;verticalAlign=middle;whiteSpace=wrap;rounded=0;" vertex="1" parent="bSQ3q1H7U0tl5dDUjRKu-1">
          <mxGeometry x="440" y="500" width="40" height="20" as="geometry" />
        </mxCell>
        <mxCell id="bSQ3q1H7U0tl5dDUjRKu-13" value="App.js/App Component" style="text;html=1;strokeColor=none;fillColor=none;align=center;verticalAlign=middle;whiteSpace=wrap;rounded=0;" vertex="1" parent="bSQ3q1H7U0tl5dDUjRKu-1">
          <mxGeometry x="440" y="440" width="40" height="20" as="geometry" />
        </mxCell>
      </root>
    </mxGraphModel>
  </diagram>
</mxfile>
